<svg width="621" height="621" viewBox="0 0 621 621" fill="none" xmlns="http://www.w3.org/2000/svg">
<rect x="63.8325" y="63.2059" width="493" height="493" rx="246.5" fill="white"/>
<path fill-rule="evenodd" clip-rule="evenodd" d="M310.401 6.10352e-05C481.831 0.00022597 620.802 138.972 620.802 310.401C620.802 481.831 481.831 620.802 310.401 620.802C138.972 620.802 0.000165021 481.831 0 310.401C0 138.972 138.972 6.10352e-05 310.401 6.10352e-05ZM312.206 101.063C195.594 101.063 101.062 195.596 101.062 312.208C101.062 428.82 195.594 523.353 312.206 523.353C428.818 523.353 523.35 428.82 523.351 312.208C523.351 195.596 428.818 101.063 312.206 101.063Z" fill="#0496FF"/>
<path d="M330.601 360.796C325.348 362.61 319.706 363.066 313.831 363.013C286.217 362.764 264.035 340.177 264.284 312.564C264.533 284.95 287.12 262.768 314.734 263.017C320.609 263.07 326.242 263.628 331.462 265.536L471.276 314.433L330.601 360.796Z" fill="#0496FF"/>
<path d="M362.29 296.332C364.104 301.585 364.559 307.228 364.506 313.103C364.257 340.716 341.67 362.898 314.057 362.649C286.444 362.4 264.261 339.813 264.51 312.199C264.564 306.324 265.121 300.691 267.03 295.472L315.926 155.657L362.29 296.332Z" fill="#00487C"/>
<path d="M537.751 99.0711C589.283 154.484 620.801 228.762 620.801 310.401C620.801 481.831 481.83 620.801 310.401 620.802C228.761 620.801 154.483 589.283 99.0698 537.752L169.237 467.585C206.846 502.208 257.056 523.352 312.206 523.352C428.818 523.352 523.35 428.82 523.35 312.208C523.35 257.058 502.207 206.847 467.583 169.238L537.751 99.0711Z" fill="#00487C"/>
</svg>
